
<svg version="1.0" xmlns="http://www.w3.org/2000/svg"
 width="300.000000pt" height="280.000000pt" viewBox="0 0 300.000000 280.000000"
 preserveAspectRatio="xMidYMid meet">

<g transform="translate(0.000000,280.000000) scale(0.100000,-0.100000)"
fill="#0088bb" stroke="none">
<path d="M941 2618 c-39 -60 -60 -159 -61 -285 0 -46 -2 -83 -4 -83 -3 0 -42
26 -88 57 -118 81 -198 164 -239 248 l-34 70 -3 -69 c-4 -85 11 -134 81 -276
29 -58 53 -108 55 -111 2 -4 -30 -15 -70 -24 -183 -45 -258 -79 -373 -172 -44
-36 -81 -69 -83 -73 -2 -5 39 6 90 23 130 43 234 42 461 -3 92 -18 167 -36
167 -40 0 -3 -44 -36 -97 -73 -109 -74 -201 -152 -192 -161 3 -4 26 3 50 14
54 24 134 26 189 4 24 -10 45 -13 50 -8 5 5 18 34 30 64 12 30 33 75 47 100
51 87 192 266 262 333 l72 67 9 104 c10 115 32 183 85 263 19 29 31 53 26 53
-14 0 -104 -51 -130 -74 -34 -30 -85 -144 -120 -270 -16 -60 -32 -111 -35
-114 -11 -11 -98 193 -108 252 -9 56 -5 157 9 214 9 37 -10 25 -46 -30z m287
-218 c-5 -41 -12 -94 -14 -117 -4 -37 -16 -53 -82 -120 -96 -97 -231 -282
-278 -381 l-35 -75 -46 7 c-26 3 -49 9 -52 12 -3 4 10 18 29 33 19 14 54 45
78 68 38 36 42 44 32 62 -6 12 -23 27 -38 35 -57 28 -326 76 -437 76 -64 1
-68 2 -51 15 27 20 113 52 220 80 93 25 126 45 126 77 0 10 -19 55 -41 100
-23 46 -47 99 -55 120 l-13 38 80 -68 c72 -62 160 -122 200 -137 9 -3 26 2 39
13 18 15 23 31 28 90 5 75 16 98 27 60 4 -13 21 -54 37 -93 77 -178 124 -183
174 -17 24 79 74 206 79 200 1 -2 -2 -37 -7 -78z"/>
<path d="M1570 2361 c-5 -11 -10 -38 -10 -60 l0 -41 45 0 c39 0 45 3 45 21 0
20 4 21 48 15 150 -22 297 -81 413 -167 205 -152 329 -402 329 -664 0 -423
-314 -777 -737 -830 l-53 -7 0 41 0 41 -46 0 -46 0 4 -105 4 -105 -128 0
c-119 0 -128 -1 -139 -21 -6 -12 -9 -30 -6 -40 5 -17 -1 -19 -59 -19 l-64 0 0
-42 0 -43 440 0 440 0 0 43 0 42 -65 0 c-65 0 -65 0 -65 28 0 47 -14 52 -147
52 -123 0 -123 0 -123 24 0 21 5 24 64 29 267 25 536 200 682 442 86 142 125
290 126 470 0 249 -86 460 -259 638 -170 174 -398 277 -613 277 -58 0 -71 -3
-80 -19z m70 -1757 c11 -13 10 -19 -8 -37 l-22 -21 0 37 c0 40 10 46 30 21z
m126 -144 c101 0 105 -1 114 -24 5 -13 14 -27 19 -31 35 -21 -12 -25 -294 -25
l-305 0 21 40 21 40 103 0 c95 0 106 2 132 24 l28 24 28 -24 c26 -22 37 -24
133 -24z"/>
<path d="M1475 2197 l-80 -22 -3 -54 c-2 -41 0 -52 10 -48 7 2 48 12 91 22
l77 17 0 54 c0 30 -3 54 -7 53 -5 0 -44 -10 -88 -22z"/>
<path d="M1657 2178 c3 -24 6 -44 7 -44 0 -1 34 5 74 14 107 25 96 38 -55 67
l-31 6 5 -43z"/>
<path d="M1233 2072 c-50 -44 -54 -54 -15 -42 15 4 39 11 55 14 22 5 27 12 27
36 0 39 -15 38 -67 -8z"/>
<path d="M1933 2103 c-22 -4 -23 -9 -23 -93 l0 -88 60 18 c33 10 79 21 101 25
22 4 39 10 37 15 -3 8 -148 131 -151 129 -1 -1 -12 -4 -24 -6z m52 -69 c32
-21 32 -40 0 -46 -30 -6 -35 -2 -35 34 0 33 2 33 35 12z"/>
<path d="M1722 2052 l-64 -17 -1 -88 c-2 -84 -1 -88 18 -82 11 3 48 13 83 22
l62 16 0 83 c0 96 5 93 -98 66z m58 -73 c0 -30 -31 -59 -63 -59 -15 0 -18 7
-15 42 3 35 7 43 28 48 37 10 50 1 50 -31z"/>
<path d="M1473 1998 l-83 -20 0 -90 0 -90 28 6 c15 3 54 12 87 19 l60 13 3 92
c1 51 -1 91 -5 91 -4 -1 -45 -10 -90 -21z m51 -54 c18 -46 -7 -84 -55 -84 -33
0 -44 17 -35 55 10 39 78 61 90 29z"/>
<path d="M1203 1937 l-83 -21 0 -94 c0 -93 0 -94 23 -88 12 3 52 13 90 23 l67
17 0 93 c0 51 -3 93 -7 92 -5 -1 -45 -11 -90 -22z m57 -82 c0 -40 -3 -47 -27
-56 -49 -19 -68 -9 -68 36 0 32 5 42 25 52 14 7 35 13 48 13 20 0 22 -5 22
-45z"/>
<path d="M2006 1856 c-50 -11 -89 -24 -88 -28 1 -5 2 -49 2 -99 l0 -91 28 6
c160 36 187 44 186 54 -1 7 -2 50 -2 97 -2 99 8 94 -126 61z m84 -92 c0 -42
-1 -44 -41 -54 -66 -18 -83 -11 -87 34 -4 46 6 58 61 72 54 14 67 4 67 -52z"/>
<path d="M2217 1808 c6 -99 5 -98 48 -88 20 5 38 10 40 12 5 5 -78 148 -86
148 -3 0 -4 -33 -2 -72z"/>
<path d="M995 1753 c-14 -31 -24 -57 -22 -59 2 -2 16 0 33 5 27 7 29 10 29 59
0 29 -3 52 -8 52 -4 0 -19 -25 -32 -57z"/>
<path d="M1770 1798 c-19 -5 -52 -14 -72 -19 l-38 -10 0 -100 c0 -77 3 -99 13
-96 6 3 47 14 90 24 78 18 78 18 73 47 -3 16 -6 59 -6 97 0 75 0 74 -60 57z
m20 -97 c0 -48 -1 -50 -35 -61 -46 -15 -55 -8 -55 46 0 47 15 62 68 63 20 1
22 -4 22 -48z"/>
<path d="M1485 1727 l-80 -22 -3 -97 c-1 -54 1 -98 4 -98 4 0 43 9 86 21 l78
21 0 99 c0 54 -1 99 -2 98 -2 0 -39 -10 -83 -22z m45 -87 c0 -46 -23 -72 -59
-68 -22 3 -26 8 -29 41 -4 43 9 64 41 69 37 6 47 -2 47 -42z"/>
<path d="M1206 1657 l-79 -22 2 -95 c1 -52 3 -95 4 -96 1 -1 41 8 89 20 l88
21 0 98 c0 71 -3 97 -12 96 -7 0 -49 -10 -92 -22z m62 -83 c3 -48 -9 -62 -59
-66 -34 -3 -34 -3 -37 45 -3 41 0 48 20 57 13 5 34 8 48 7 22 -2 25 -7 28 -43z"/>
<path d="M2272 1630 c-18 -4 -36 -10 -39 -13 -9 -10 8 -217 19 -217 5 0 29 5
54 11 l44 11 0 63 c0 34 -3 83 -6 109 -7 49 -10 51 -72 36z m34 -74 c8 -34 1
-89 -12 -93 -13 -4 -30 89 -19 107 11 17 24 11 31 -14z"/>
<path d="M975 1601 l-30 -6 -3 -101 -3 -101 48 12 48 12 3 97 c3 106 6 102
-63 87z"/>
<path d="M2035 1571 l-100 -26 3 -104 c1 -58 3 -106 5 -107 1 -2 47 7 102 20
l100 23 1 62 c1 35 -1 84 -5 110 l-6 48 -100 -26z m69 -81 c9 -64 -3 -86 -51
-94 -67 -11 -72 -9 -79 31 -10 55 4 84 51 99 68 21 72 19 79 -36z"/>
<path d="M1745 1500 c-38 -11 -73 -19 -77 -19 -5 -1 -8 -48 -8 -106 0 -58 3
-105 8 -105 6 0 47 9 160 35 19 5 22 12 22 58 0 82 -12 157 -24 156 -6 0 -42
-9 -81 -19z m65 -99 c0 -20 -4 -41 -8 -47 -8 -14 -82 -35 -94 -28 -10 6 -11
95 0 111 4 6 23 15 42 21 43 12 60 -5 60 -57z"/>
<path d="M1488 1438 l-78 -20 0 -105 c0 -90 2 -104 15 -99 9 3 45 11 80 18
l65 11 0 109 c0 59 -1 108 -2 107 -2 -1 -38 -10 -80 -21z m40 -91 c4 -57 -9
-77 -49 -77 -28 0 -29 1 -29 55 0 48 3 57 23 65 41 17 52 8 55 -43z"/>
<path d="M1297 1394 c-3 -4 -41 -15 -83 -25 -42 -10 -79 -20 -81 -23 -3 -2 -2
-48 2 -101 6 -82 10 -95 24 -91 15 5 68 17 134 31 l29 6 -5 100 c-4 98 -7 115
-20 103z m-27 -114 c0 -54 -15 -70 -64 -70 -24 0 -26 3 -26 50 0 54 14 69 63
70 26 0 27 -2 27 -50z"/>
<path d="M1000 1317 c-19 -6 -36 -11 -38 -13 -2 -1 17 -42 42 -90 l45 -89 0
103 c1 56 -2 102 -6 101 -5 -1 -24 -6 -43 -12z"/>
<path d="M2285 1316 c-22 -6 -39 -15 -37 -19 1 -4 2 -36 2 -72 0 -36 4 -65 9
-65 9 0 76 158 70 164 -2 2 -22 -2 -44 -8z"/>
<path d="M2044 1262 l-102 -25 6 -86 c2 -47 6 -88 8 -90 5 -6 204 31 208 38 6
10 -6 191 -13 190 -3 -1 -52 -13 -107 -27z m74 -78 c4 -51 -10 -63 -74 -66
l-49 -3 0 44 c0 43 1 45 40 57 66 20 80 15 83 -32z"/>
<path d="M1755 1196 l-90 -21 -3 -88 c-2 -66 0 -87 10 -86 7 0 51 8 98 18 l85
17 3 92 c1 51 -1 92 -5 91 -4 -1 -48 -11 -98 -23z m60 -81 c0 -39 -1 -40 -45
-51 -53 -13 -70 -4 -70 38 0 23 7 32 33 43 17 8 43 14 57 12 22 -2 25 -7 25
-42z"/>
<path d="M1487 1137 l-78 -19 5 -82 c2 -44 8 -81 13 -81 4 1 40 6 78 13 l70
13 -2 86 c-1 47 -3 86 -5 87 -2 1 -38 -7 -81 -17z m41 -77 c4 -36 -9 -50 -45
-50 -20 0 -23 5 -23 35 0 28 5 38 23 45 33 13 42 7 45 -30z"/>
<path d="M1223 1077 c-48 -12 -83 -26 -83 -33 0 -7 28 -37 63 -68 54 -47 67
-54 90 -48 15 4 27 10 27 15 2 81 -2 157 -7 156 -5 -1 -45 -11 -90 -22z m57
-67 c0 -35 -9 -37 -40 -12 -27 22 -19 42 16 42 20 0 24 -5 24 -30z"/>
<path d="M2050 982 c-41 -8 -79 -16 -85 -17 -14 -3 -6 -115 8 -115 11 0 107
78 162 131 23 22 21 22 -85 1z"/>
<path d="M1738 922 l-78 -15 0 -74 c0 -65 2 -73 19 -73 22 0 110 16 160 30
l36 9 -3 71 c-4 81 1 79 -134 52z m92 -56 c0 -31 -16 -43 -71 -51 -37 -6 -47
-4 -52 9 -10 25 3 46 32 52 14 3 31 7 36 9 6 2 20 4 33 4 17 1 22 -5 22 -23z"/>
<path d="M1545 885 c-5 -2 -36 -9 -68 -15 -51 -10 -58 -14 -55 -33 3 -22 52
-46 126 -62 l32 -7 0 61 c0 60 -5 67 -35 56z"/>
</g>
</svg>
