<?xml version="1.0" standalone="no"?>
<!DOCTYPE svg PUBLIC "-//W3C//DTD SVG 20010904//EN"
 "http://www.w3.org/TR/2001/REC-SVG-20010904/DTD/svg10.dtd">
<svg version="1.0" xmlns="http://www.w3.org/2000/svg"
 width="64.000000pt" height="64.000000pt" viewBox="0 0 64.000000 64.000000"
 preserveAspectRatio="xMidYMid meet">

<g transform="translate(0.000000,64.000000) scale(0.100000,-0.100000)"
fill="#000000" stroke="none">
<path d="M308 533 c-2 -21 -11 -29 -45 -40 -52 -18 -110 -79 -119 -127 -5 -31
-10 -36 -35 -36 -36 0 -38 -18 -2 -22 21 -2 29 -11 40 -45 18 -52 79 -110 127
-119 31 -5 36 -10 36 -35 0 -36 18 -38 22 -2 2 21 11 29 45 40 52 18 110 79
119 127 5 31 10 36 35 36 36 0 38 18 2 22 -21 2 -29 11 -40 45 -18 52 -79 110
-127 119 -31 5 -36 10 -36 35 0 36 -18 38 -22 2z m54 -63 c113 -32 150 -176
67 -259 -110 -111 -300 -2 -259 148 13 48 59 97 103 110 43 12 46 12 89 1z"/>
<path d="M255 385 c-35 -34 -35 -96 0 -130 18 -19 35 -25 65 -25 30 0 47 6 65
25 19 18 25 35 25 65 0 56 -34 90 -90 90 -30 0 -47 -6 -65 -25z"/>
</g>
</svg>
